<svg width="280" height="224" viewBox="0 0 280 224" fill="none" xmlns="http://www.w3.org/2000/svg">
<path d="M43.1161 6.81677L43.1161 6.81676C49.1249 4.47026 54.3804 3.104 61.0911 2.14751C79.2439 -0.439605 99.2888 4.83581 113.73 15.9963C120.465 21.2019 126.717 26.1981 132.237 34.8095C133.534 36.8318 134.956 39.611 136.07 41.9228C136.623 43.071 137.092 44.0897 137.424 44.8209C137.59 45.1864 137.72 45.4796 137.81 45.6808C137.854 45.7814 137.888 45.859 137.911 45.9111L137.937 45.9697L137.943 45.9841L137.945 45.9875L137.945 45.9882L139.264 49.0205L140.677 46.031L140.677 46.0309L140.677 46.0301L140.679 46.0267L140.686 46.0122L140.713 45.9534C140.725 45.9282 140.74 45.8969 140.758 45.8599C140.777 45.8206 140.799 45.7749 140.824 45.7231C140.92 45.5219 141.062 45.2287 141.241 44.8634C141.599 44.1324 142.105 43.1139 142.697 41.9653C143.888 39.6542 145.403 36.8668 146.751 34.8274C157.35 18.7989 170.454 10.5641 186.189 5.33342L185.716 3.91114L186.189 5.33341C193.503 2.90163 197.086 2.32882 207.131 2.03939C218.227 1.7196 223.421 2.37363 231.636 5.06496L232.103 3.63951L231.637 5.06498C243.136 8.83204 252.076 14.3253 259.938 22.4281C269.829 32.6204 275.215 43.9076 277.608 59.6159C278.445 65.1067 278.53 74.707 277.793 80.0058C276.648 88.2348 271.569 101.908 265.961 111.706C260.965 120.435 255.854 126.81 245.547 137.095C235.342 147.279 227.67 153.679 205.138 170.77C197.7 176.412 189.347 182.817 186.577 185.005C183.821 187.181 178.996 190.983 175.855 193.453C168.298 199.395 158.056 208.251 150.332 215.518C146.868 218.776 144.891 220.53 143.445 221.483C142.748 221.942 142.225 222.18 141.764 222.311C141.305 222.441 140.833 222.487 140.2 222.479C139.228 222.465 138.359 222.253 136.706 221.057C134.973 219.802 132.545 217.584 128.487 213.678C117.06 202.68 108.515 195.788 76.9714 172.091C65.4142 163.409 53.186 153.972 49.7856 151.113L48.8205 152.262L49.7856 151.113C20.3911 126.408 7.75251 108.322 2.69723 84.3307C1.96245 80.8435 1.55079 75.5576 1.5044 70.2757C1.45796 64.9864 1.77941 59.8668 2.449 56.7004C5.58628 41.8654 10.6862 31.7627 19.6033 22.5317L18.5245 21.4895L19.6033 22.5317C26.6806 15.2051 33.7784 10.463 43.1161 6.81677Z" stroke="black" stroke-width="3"/>
</svg>
